<?xml version="1.0" standalone="no"?><!DOCTYPE svg PUBLIC "-//W3C//DTD SVG 1.1//EN" "http://www.w3.org/Graphics/SVG/1.1/DTD/svg11.dtd"><svg t="1624823805800" class="icon" viewBox="0 0 1024 1024" version="1.1" xmlns="http://www.w3.org/2000/svg" p-id="2147" xmlns:xlink="http://www.w3.org/1999/xlink" width="200" height="200"><defs><style type="text/css"></style></defs><path d="M912 704a99.04 99.04 0 0 1-2.08 17.28C902.88 758.4 869.92 842.4 720 832l45.28-64L800 720z" fill="#D6A62D" p-id="2148"></path><path d="M912 704a99.04 99.04 0 0 1-2.08 17.28c-24.96 27.04-68.64 49.92-144 48L800 720z" fill="#FFD466" p-id="2149"></path><path d="M256 848s-64 45.28-64 64 48 16 48 16a28.64 28.64 0 0 0 16 32 43.2 43.2 0 0 0 12.16 3.68 76.32 76.32 0 0 0 72.48-31.04L368 896zM640 848s64 45.28 64 64-48 16-48 16a28.64 28.64 0 0 1-16 32 43.2 43.2 0 0 1-12.16 3.68 76.32 76.32 0 0 1-72.48-31.04L528 896z" fill="#FFF0C9" p-id="2150"></path><path d="M624 880q-20.8 8.32-40.8 14.88C330.08 976 176 820.32 176 700a334.24 334.24 0 0 1 10.56-76 311.36 311.36 0 0 1 43.04-94.4L224 528c-4-9.12-7.52-17.92-10.4-26.4C152.16 328.64 272 256 272 256l7.52 1.28C288 204.48 320 140.64 416 96c139.68-64 268.8 4.64 324.64 116.64 1.92-2.4 4-4.64 6.08-4.64a11.2 11.2 0 0 1 5.28 0s58.72 34.56 48 176a411.04 411.04 0 0 1-19.68 103.2l11.68 1.92a107.36 107.36 0 0 1 24 30.24 153.12 153.12 0 0 1 9.44 19.2C862.08 626.72 846.72 788.96 624 880z" fill="#FFD466" p-id="2151"></path><path d="M560 296a24 16 90 1 0 32 0 24 16 90 1 0-32 0Z" fill="#001C63" p-id="2152"></path><path d="M608 776a292.64 292.64 0 0 1-24.8 118.88C330.08 976 176 820.32 176 700a334.24 334.24 0 0 1 10.56-76 224.8 224.8 0 0 1 189.44-112C504.16 512 608 630.24 608 776z" fill="#F0C763" p-id="2153"></path><path d="M624 880c-277.28 113.28-448-53.28-448-180a312 312 0 0 1 53.6-170.88L224 528c-4-9.12-7.52-17.92-10.4-26.4L224 512l64-32c-3.2 7.2-135.68 200.96-48 288 168 166.08 385.92 88 480 0 81.92-76.48 86.88-109.92 105.76-229.44C862.08 626.72 846.72 788.96 624 880z" fill="#F0C763" p-id="2154"></path><path d="M320 280a24 16 90 1 0 32 0 24 16 90 1 0-32 0Z" fill="#001C63" p-id="2155"></path><path d="M816 519.36c-43.2 33.12-77.6 48-64 8.64 30.08-89.92-16-288-16-288l10.72-32a11.2 11.2 0 0 1 5.28 0s58.72 34.56 48 176a412.16 412.16 0 0 1-19.68 103.36l11.68 1.92a107.36 107.36 0 0 1 24 30.08z" fill="#F0C763" p-id="2156"></path><path d="M480 448c-52.16 19.84-246.72 48-304 0a82.72 82.72 0 0 1-21.6-24.96C136.8 389.92 176 370.24 208 368c40-2.72 141.28-20 160-48s64-16 64-16c32 3.84 45.6 34.56 104.32 60.64L544 368c65.28 26.72-8 58.72-64 80z" fill="#FFDB7D" p-id="2157"></path><path d="M536.32 364.64C529.12 384 484.8 401.92 448 416c-49.28 18.72-226.24 44.96-293.6 7.04C136.8 389.92 176 370.24 208 368c40-2.72 141.28-20 160-48s64-16 64-16c32 3.84 45.6 34.56 104.32 60.64z" fill="#FFF0C9" p-id="2158"></path><path d="M440 360m-8 0a8 8 0 1 0 16 0 8 8 0 1 0-16 0Z" fill="#001C63" p-id="2159"></path><path d="M360 360m-8 0a8 8 0 1 0 16 0 8 8 0 1 0-16 0Z" fill="#001C63" p-id="2160"></path><path d="M688 224m-16 0a16 16 0 1 0 32 0 16 16 0 1 0-32 0Z" fill="#FFFFFF" p-id="2161"></path></svg>