<?xml version="1.0" standalone="no"?><!DOCTYPE svg PUBLIC "-//W3C//DTD SVG 1.1//EN" "http://www.w3.org/Graphics/SVG/1.1/DTD/svg11.dtd"><svg t="1625592926234" class="icon" viewBox="0 0 1024 1024" version="1.1" xmlns="http://www.w3.org/2000/svg" p-id="9197" width="200" height="200" xmlns:xlink="http://www.w3.org/1999/xlink"><defs><style type="text/css"></style></defs><path d="M508.193813 273.195126 362.692974 273.195126l0 454.69076 142.902664 0c138.558729 0 207.859072-76.200496 207.859072-228.644467C709.964212 353.74058 641.556193 278.392498 508.193813 273.195126z" fill="#0f50c2" p-id="9198"></path><path d="M509.951853 64.87659c-246.432599 0-446.205505 199.773929-446.205505 446.205505s199.772906 446.205505 446.205505 446.205505 446.207551-199.773929 446.207551-446.205505S756.384451 64.87659 509.951853 64.87659zM505.595638 756.467851 321.12116 756.467851 321.12116 239.418858l189.67185 0c155.894559 5.196349 236.440014 91.831498 241.636363 259.823584C755.878938 674.217568 673.588747 759.919463 505.595638 756.467851z" fill="#0f50c2" p-id="9199"></path></svg>